<svg xmlns="http://www.w3.org/2000/svg" xmlns:xlink="http://www.w3.org/1999/xlink" version="1.1" x="0px" y="0px" viewBox="0 0 100 125" enable-background="new 0 0 100 100" xml:space="preserve"><path d="M98.332,50.514c0,26.096-21.16,47.269-47.269,47.269c-26.109,0-47.269-21.173-47.269-47.269  c0-26.108,21.16-47.283,47.269-47.283C77.172,3.23,98.332,24.405,98.332,50.514L98.332,50.514z M94.006,50.514  c0-23.723-19.219-42.957-42.942-42.957c-23.708,0-42.942,19.234-42.942,42.957c0,23.709,19.233,42.942,42.942,42.942  C74.787,93.456,94.006,74.223,94.006,50.514L94.006,50.514z"/><g><path d="M77.306,22.286c-7.735,0.592-15.218,2.948-21.915,6.86c-0.238,2.045-0.297,4.105-0.164,6.136   c-0.874-1.497-1.541-3.112-1.985-4.787c-10.387,6.802-17.929,17.13-21.248,29.087c-3.809,5.188-6.965,10.803-9.38,16.774   C33.46,58.353,48.055,42.897,65.408,31.044c-10.463,9.675-20.375,19.944-29.667,30.761c12.181-2.281,23.175-8.787,31.043-18.374   c-3.053-0.267-6.119-0.164-9.143,0.297c3.438-1.572,7.156-2.46,10.935-2.609c1.083-1.481,2.104-3.038,3.038-4.623   C69.2,36.718,66.8,37.147,64.474,37.8c2.519-1.525,5.29-2.607,8.179-3.201C74.712,30.717,76.283,26.568,77.306,22.286z"/></g><g><path d="M29.889,77.482c3.305-2.06,7.334-2.594,11.069-1.467c4.578,1.896,9.72,1.926,14.343,0.118   c0.326-0.134,0.475-0.504,0.355-0.845c-0.118-0.312-0.488-0.475-0.829-0.341c-4.327,1.705-9.143,1.645-13.44-0.134   c-4.104-1.259-8.535-0.666-12.18,1.6c-0.296,0.179-0.385,0.564-0.192,0.861C29.192,77.572,29.578,77.66,29.889,77.482z"/></g></svg>